<svg width="259" height="103" viewBox="0 0 259 103" fill="none" xmlns="http://www.w3.org/2000/svg">
<path d="M0.191988 70.4C0.277322 68.736 0.383989 67.0507 0.511989 65.344C0.639989 63.5947 0.789322 61.8667 0.959989 60.16C4.11732 60.288 6.71999 60.2667 8.76799 60.096C10.816 59.8827 12.3307 59.456 13.312 58.816C14.2933 58.1333 14.784 57.1733 14.784 55.936C14.784 54.144 13.632 53.0133 11.328 52.544C9.02399 52.032 5.78132 51.7547 1.59999 51.712C1.68532 50.176 1.81332 48.6613 1.98399 47.168C2.15466 45.6747 2.32532 44.16 2.49599 42.624C6.37866 43.5627 9.47199 43.968 11.776 43.84C14.1227 43.712 15.296 42.3467 15.296 39.744C15.296 38.2933 14.4 37.2267 12.608 36.544C10.816 35.8187 7.70132 35.2427 3.26399 34.816C3.60532 32.1707 3.92532 29.5253 4.22399 26.88C4.56532 24.2347 4.92799 21.5467 5.31199 18.816C6.07999 13.184 7.80799 9.06668 10.496 6.46401C13.184 3.86135 16.7893 2.56001 21.312 2.56001C25.536 2.56001 28.6507 3.56268 30.656 5.56801C32.704 7.53068 34.24 10.112 35.264 13.312C35.5627 14.208 35.84 15.104 36.096 16C36.3947 16.8533 36.672 17.7067 36.928 18.56C37.1413 19.1573 37.3333 19.776 37.504 20.416C37.7173 21.0133 37.9093 21.6107 38.08 22.208C38.2507 22.7627 38.4213 23.3387 38.592 23.936C38.7627 24.4907 38.9333 25.0667 39.104 25.664C39.3173 26.432 39.552 27.2 39.808 27.968C40.064 28.736 40.2987 29.5253 40.512 30.336C40.6827 30.8907 40.832 31.4453 40.96 32C41.1307 32.512 41.3013 33.0453 41.472 33.6C41.6853 34.1547 41.8773 34.7093 42.048 35.264C42.2187 35.8187 42.3893 36.3947 42.56 36.992C43.072 38.7413 43.6053 40.5333 44.16 42.368C44.7573 44.2027 45.376 46.1227 46.016 48.128C46.4427 49.4933 47.2533 50.176 48.448 50.176C49.5573 50.176 50.368 49.3653 50.88 47.744C52.16 43.776 53.3333 39.744 54.4 35.648C55.4667 31.552 56.576 27.3707 57.728 23.104C58.88 18.7947 60.224 14.3787 61.76 9.85601C62.656 7.16801 63.808 5.14134 65.216 3.77601C66.624 2.36801 68.5013 1.66401 70.848 1.66401C73.6213 1.66401 75.6267 2.62401 76.864 4.54401C78.144 6.42134 78.9973 8.87468 79.424 11.904C81.1733 23.7227 82.752 35.968 84.16 48.64C85.568 61.2693 86.8053 73.7707 87.872 86.144C88.0853 88.2347 87.8293 89.9627 87.104 91.328C86.3787 92.6507 85.1413 93.312 83.392 93.312C81.728 93.312 80.4267 92.7573 79.488 91.648C78.592 90.5387 77.888 88.832 77.376 86.528C76.0533 80.128 74.8587 73.792 73.792 67.52C72.7253 61.248 71.616 55.5947 70.464 50.56C70.08 48.768 69.312 47.7653 68.16 47.552C67.0507 47.3387 65.8133 47.9147 64.448 49.28C62.528 51.2427 60.8 53.248 59.264 55.296C57.728 57.344 56 59.392 54.08 61.44C52.672 62.976 51.3067 64.0427 49.984 64.64C48.6613 65.2373 47.3387 65.536 46.016 65.536C44.48 65.536 43.0507 65.0453 41.728 64.064C40.448 63.04 39.36 61.44 38.464 59.264C36.288 54.0587 34.2187 48.448 32.256 42.432C30.2933 36.416 28.224 30.6347 26.048 25.088C25.3653 23.3387 24.4907 22.6347 23.424 22.976C22.3573 23.2747 21.7813 24.192 21.696 25.728C21.5253 30.72 21.4827 35.456 21.568 39.936C21.696 44.416 21.824 49.2373 21.952 54.4C22.08 59.52 22.1227 65.536 22.08 72.448C22.0373 76.4587 21.1627 79.6373 19.456 81.984C17.792 84.3307 14.7413 85.504 10.304 85.504C7.40266 85.504 5.20532 84.864 3.71199 83.584C2.21866 82.304 1.21599 80.5333 0.703989 78.272C0.234655 75.968 0.0639885 73.344 0.191988 70.4ZM69.184 37.504C70.8053 37.504 72.1493 37.0133 73.216 36.032C74.2827 35.008 74.816 33.7067 74.816 32.128C74.816 29.8667 74.3253 28.2667 73.344 27.328C72.4053 26.3467 71.232 25.856 69.824 25.856C67.4773 25.856 65.7707 26.432 64.704 27.584C63.68 28.6933 63.168 30.208 63.168 32.128C63.168 33.7067 63.744 35.008 64.896 36.032C66.048 37.0133 67.4773 37.504 69.184 37.504ZM48.064 61.312C46.4853 61.312 45.3547 60.992 44.672 60.352C44.032 59.712 43.712 58.88 43.712 57.856C43.712 56.32 44.0533 55.1893 44.736 54.464C45.4187 53.7387 46.528 53.376 48.064 53.376C49.1733 53.376 50.048 53.7173 50.688 54.4C51.328 55.04 51.648 56.1067 51.648 57.6C51.648 58.88 51.328 59.8187 50.688 60.416C50.048 61.0133 49.1733 61.312 48.064 61.312ZM79.04 80.256C77.376 80.512 75.5627 80.7253 73.6 80.896C71.68 81.0667 69.696 81.1947 67.648 81.28C64.448 81.408 61.9733 81.1733 60.224 80.576C58.5173 79.9787 57.664 78.72 57.664 76.8C57.664 75.0507 58.432 73.856 59.968 73.216C61.5467 72.5333 64.192 71.9787 67.904 71.552C69.44 71.424 70.9333 71.3173 72.384 71.232C73.8347 71.104 75.584 71.04 77.632 71.04C79.424 71.04 80.9387 71.3173 82.176 71.872C83.4133 72.384 84.032 73.5147 84.032 75.264C84.032 76.928 83.584 78.1227 82.688 78.848C81.792 79.5307 80.576 80 79.04 80.256ZM96.01 79.488C96.394 74.4533 96.8207 69.2267 97.29 63.808C97.802 58.3893 98.3353 52.928 98.89 47.424C98.9327 46.9547 98.9753 46.4853 99.018 46.016C99.1033 45.504 99.1673 45.0133 99.21 44.544C99.2527 44.0747 99.2953 43.6053 99.338 43.136C99.5087 41.6427 99.6367 40.2987 99.722 39.104C99.85 37.8667 99.9993 36.608 100.17 35.328C100.298 34.3893 100.405 33.4293 100.49 32.448C100.618 31.4667 100.725 30.5067 100.81 29.568C100.895 28.8427 100.981 28.16 101.066 27.52C101.151 26.8373 101.215 26.1547 101.258 25.472C101.343 24.7467 101.429 24.0213 101.514 23.296C101.599 22.5707 101.706 21.7173 101.834 20.736C102.047 19.2427 102.239 17.7067 102.41 16.128C102.623 14.5067 102.837 12.8427 103.05 11.136C103.647 6.91201 104.821 4.01068 106.57 2.43201C108.319 0.810677 110.303 7.62939e-06 112.522 7.62939e-06C114.527 7.62939e-06 116.255 0.554675 117.706 1.66401C119.157 2.77334 120.458 4.86401 121.61 7.93601C121.866 8.57601 122.122 9.21601 122.378 9.85601C122.677 10.496 122.89 11.136 123.018 11.776C116.959 13.4827 112.991 14.976 111.114 16.256C109.279 17.536 108.554 18.9867 108.938 20.608C109.407 22.4427 110.837 23.296 113.226 23.168C115.658 22.9973 119.903 21.9307 125.962 19.968C126.261 20.7787 126.538 21.568 126.794 22.336C127.093 23.0613 127.37 23.808 127.626 24.576C127.882 25.2587 128.138 25.9627 128.394 26.688C128.65 27.3707 128.927 28.0747 129.226 28.8C129.439 29.3973 129.653 29.9947 129.866 30.592C130.122 31.1893 130.357 31.7867 130.57 32.384C131.039 33.4507 131.487 34.5173 131.914 35.584C132.383 36.6507 132.874 37.7387 133.386 38.848C133.983 40.1707 134.837 40.832 135.946 40.832C136.97 40.832 137.994 40.192 139.018 38.912C141.365 35.84 143.583 32.6827 145.674 29.44C147.765 26.1973 149.855 22.912 151.946 19.584C154.079 16.256 156.341 12.928 158.73 9.60001C160.138 7.59468 161.311 6.29335 162.25 5.69601C163.231 5.05601 164.234 4.73601 165.258 4.73601C166.538 4.73601 167.69 5.29067 168.714 6.40001C169.738 7.46668 170.463 9.25868 170.89 11.776C173.151 23.5947 175.263 35.712 177.226 48.128C179.189 60.5013 180.959 72.3627 182.538 83.712C182.922 86.656 182.495 88.896 181.258 90.432C180.021 91.9253 178.399 92.672 176.394 92.672C174.73 92.672 173.322 92.0747 172.17 90.88C171.018 89.6853 170.25 87.8507 169.866 85.376C168.671 76.9707 167.733 69.0773 167.05 61.696C166.41 54.272 165.514 46.72 164.362 39.04C164.063 37.0347 163.274 36.0107 161.994 35.968C160.757 35.9253 159.754 36.8213 158.986 38.656C157.066 43.392 155.146 48.64 153.226 54.4C151.349 60.16 149.343 65.5787 147.21 70.656C146.57 72.1493 145.781 73.3013 144.842 74.112C143.946 74.88 142.815 75.264 141.45 75.264C139.999 75.264 138.805 74.8373 137.866 73.984C136.927 73.088 136.074 71.9787 135.306 70.656C132.831 66.2187 130.57 61.568 128.522 56.704C126.474 51.84 124.255 47.232 121.866 42.88C120.927 41.1307 119.754 40.3413 118.346 40.512C116.938 40.6827 115.978 41.6 115.466 43.264C114.399 46.72 113.269 50.7093 112.074 55.232C110.879 59.7547 109.663 64.3413 108.426 68.992C107.231 73.6427 106.079 77.9093 104.97 81.792C104.458 83.584 103.733 84.8427 102.794 85.568C101.898 86.2933 100.874 86.656 99.722 86.656C98.7833 86.656 98.0153 86.3787 97.418 85.824C96.8207 85.2693 96.394 84.48 96.138 83.456C95.9247 82.3893 95.882 81.0667 96.01 79.488ZM141.706 58.24C142.943 58.24 143.925 57.8347 144.65 57.024C145.418 56.1707 145.802 55.296 145.802 54.4C145.802 52.736 145.418 51.4987 144.65 50.688C143.925 49.8347 143.071 49.408 142.09 49.408C140.298 49.408 138.997 49.8133 138.186 50.624C137.375 51.4347 136.97 52.608 136.97 54.144C136.97 55.4667 137.397 56.4907 138.25 57.216C139.103 57.8987 140.255 58.24 141.706 58.24ZM141.834 70.656C140.511 70.656 139.466 70.272 138.698 69.504C137.973 68.736 137.61 67.712 137.61 66.432C137.61 65.408 137.93 64.5333 138.57 63.808C139.253 63.0827 140.298 62.72 141.706 62.72C142.73 62.72 143.626 63.0613 144.394 63.744C145.162 64.384 145.546 65.3227 145.546 66.56C145.546 67.968 145.183 69.0133 144.458 69.696C143.733 70.336 142.858 70.656 141.834 70.656ZM173.578 82.688C171.487 82.816 169.375 82.9653 167.242 83.136C165.151 83.3067 163.039 83.456 160.906 83.584C158.815 83.7547 157.109 83.5627 155.786 83.008C154.463 82.4107 153.802 81.1947 153.802 79.36C153.802 77.9947 154.357 76.9707 155.466 76.288C156.575 75.6053 158.09 75.136 160.01 74.88C162.058 74.624 164.127 74.368 166.218 74.112C168.309 73.8133 170.378 73.5573 172.426 73.344C174.858 72.96 176.757 73.152 178.122 73.92C179.53 74.688 180.234 76.032 180.234 77.952C180.234 79.5307 179.658 80.6827 178.506 81.408C177.354 82.1333 175.711 82.56 173.578 82.688ZM195.668 94.976C194.559 81.8347 193.535 68.3093 192.596 54.4C191.657 40.448 190.932 26.9227 190.42 13.824C190.292 10.88 190.719 8.53335 191.7 6.78401C192.724 4.99201 194.644 4.09601 197.46 4.09601C200.276 4.09601 202.153 4.97068 203.092 6.72001C204.073 8.46934 204.585 10.6667 204.628 13.312C204.756 17.152 204.756 21.248 204.628 25.6C204.5 29.9093 204.5 34.304 204.628 38.784C204.713 40.576 205.204 41.6427 206.1 41.984C207.039 42.3253 208.169 41.8987 209.492 40.704C216.148 34.7307 222.804 28.5867 229.46 22.272C236.116 15.9573 242.26 10.2827 247.892 5.24801C249.001 4.26668 250.047 3.49868 251.028 2.94401C252.009 2.34668 252.905 2.04801 253.716 2.04801C254.313 2.04801 254.889 2.19734 255.444 2.49601C255.999 2.79468 256.447 3.20001 256.788 3.71201C257.129 4.22401 257.3 4.80001 257.3 5.44001C257.3 6.33601 257.023 7.31734 256.468 8.38401C255.956 9.45068 255.252 10.5173 254.356 11.584C251.199 15.5093 247.487 19.84 243.22 24.576C238.996 29.312 234.708 34.304 230.356 39.552C229.545 40.4907 229.076 41.4933 228.948 42.56C228.863 43.6267 229.204 44.7147 229.972 45.824C235.391 53.0773 239.849 59.1147 243.348 63.936C246.889 68.7147 249.684 72.576 251.732 75.52C253.823 78.4213 255.359 80.6827 256.34 82.304C257.321 83.9253 257.94 85.1627 258.196 86.016C258.495 86.8267 258.644 87.552 258.644 88.192C258.644 89.728 258.132 90.9867 257.108 91.968C256.127 92.9493 254.889 93.44 253.396 93.44C252.543 93.44 251.54 93.2267 250.388 92.8C249.236 92.416 247.508 91.584 245.204 90.304C242.943 89.024 239.7 87.104 235.476 84.544C231.295 81.984 225.705 78.5493 218.708 74.24C216.873 73.088 215.401 72.2987 214.292 71.872C213.225 71.4027 212.137 71.168 211.028 71.168C209.492 71.168 208.34 71.68 207.572 72.704C206.804 73.6853 206.377 75.136 206.292 77.056C206.164 80.256 206.1 83.456 206.1 86.656C206.143 89.856 206.121 92.3733 206.036 94.208C205.908 96.896 205.46 98.88 204.692 100.16C203.924 101.483 202.665 102.144 200.916 102.144C199.337 102.144 198.121 101.504 197.268 100.224C196.415 98.944 195.881 97.1947 195.668 94.976ZM249.3 54.912C246.996 54.912 245.225 54.2933 243.988 53.056C242.751 51.8187 242.132 49.9627 242.132 47.488C242.132 45.568 242.687 43.968 243.796 42.688C244.948 41.3653 246.612 40.704 248.788 40.704C251.092 40.704 252.948 41.28 254.356 42.432C255.764 43.5413 256.468 45.056 256.468 46.976C256.468 49.5787 255.764 51.5627 254.356 52.928C252.948 54.2507 251.263 54.912 249.3 54.912ZM235.668 8.06401C238.783 10.368 241.855 12.8427 244.884 15.488C247.956 18.0907 250.964 20.736 253.908 23.424C255.7 25.0027 256.852 26.4747 257.364 27.84C257.919 29.2053 257.62 30.5707 256.468 31.936C255.273 33.4293 253.908 33.984 252.372 33.6C250.836 33.216 249.172 32.2987 247.38 30.848C244.137 28.2027 240.937 25.5787 237.78 22.976C234.665 20.3307 231.615 17.536 228.628 14.592C227.177 13.184 226.303 11.84 226.004 10.56C225.748 9.28001 226.132 8.10668 227.156 7.04001C228.137 5.93068 229.375 5.52535 230.868 5.82401C232.361 6.08001 233.961 6.82668 235.668 8.06401ZM234.324 24.192L227.924 30.336C227.156 29.7387 226.751 28.9067 226.708 27.84C226.665 26.7307 227.263 25.6 228.5 24.448C229.609 23.2107 230.697 22.6987 231.764 22.912C232.831 23.1253 233.684 23.552 234.324 24.192ZM199.636 82.944C200.105 82.9013 200.532 82.9013 200.916 82.944C201.343 82.944 201.769 82.944 202.196 82.944C203.305 82.944 204.137 83.264 204.692 83.904C205.247 84.5013 205.524 85.504 205.524 86.912C205.524 88.448 205.247 89.5573 204.692 90.24C204.137 90.9227 203.305 91.264 202.196 91.264C201.812 91.264 201.449 91.264 201.108 91.264C200.767 91.264 200.404 91.264 200.02 91.264C198.825 91.264 197.823 90.944 197.012 90.304C196.201 89.6213 195.796 88.4907 195.796 86.912C195.796 85.4187 196.159 84.3947 196.884 83.84C197.652 83.2427 198.569 82.944 199.636 82.944ZM198.228 18.816C197.204 18.816 196.415 18.56 195.86 18.048C195.305 17.536 195.028 16.896 195.028 16.128C195.028 15.1467 195.263 14.4213 195.732 13.952C196.201 13.44 197.076 13.184 198.356 13.184C198.996 13.184 199.529 13.4187 199.956 13.888C200.425 14.3573 200.66 15.0187 200.66 15.872C200.66 16.768 200.447 17.4933 200.02 18.048C199.593 18.56 198.996 18.816 198.228 18.816ZM230.868 72.704C232.02 72.704 233.023 72.2347 233.876 71.296C234.772 70.3147 235.22 69.0347 235.22 67.456C235.22 66.176 234.815 65.088 234.004 64.192C233.193 63.296 232.191 62.848 230.996 62.848C228.948 62.848 227.497 63.2747 226.644 64.128C225.791 64.9813 225.364 66.2187 225.364 67.84C225.364 69.2907 225.791 70.464 226.644 71.36C227.54 72.256 228.948 72.704 230.868 72.704ZM217.172 61.312C218.836 61.312 220.201 60.6933 221.268 59.456C222.377 58.2187 222.932 56.8747 222.932 55.424C222.932 53.248 222.271 51.5627 220.948 50.368C219.625 49.1307 217.94 48.512 215.892 48.512C214.356 48.512 213.012 49.088 211.86 50.24C210.708 51.3493 210.132 52.8213 210.132 54.656C210.132 56.576 210.687 58.176 211.796 59.456C212.905 60.6933 214.697 61.312 217.172 61.312Z" 
fill="currentColor"/>
</svg>
